<svg xmlns="http://www.w3.org/2000/svg" width="17" height="17">
    <defs>
        <filter id="a">
            <feFlood flood-color="#C63939" flood-opacity="1" result="floodOut"/>
            <feComposite in="floodOut" in2="SourceGraphic" operator="atop" result="compOut"/>
            <feBlend in="compOut" in2="SourceGraphic"/>
        </filter>
    </defs>
    <path fill="#FFF" fill-rule="evenodd" d="M9.578 8.494l6.437 6.704a1.085 1.085 0 0 1 0 1.49.985.985 0 0 1-1.431 0L8.148 9.984l-6.436 6.704a.985.985 0 0 1-1.431 0 1.085 1.085 0 0 1 0-1.49l6.437-6.704L.281 1.79a1.084 1.084 0 0 1 0-1.489.983.983 0 0 1 1.431 0l6.436 6.704L14.584.301a.983.983 0 0 1 1.431 0 1.084 1.084 0 0 1 0 1.489L9.578 8.494z" filter="url(#a)"/>
</svg>
